<?xml version="1.0" encoding="UTF-8"?><svg xmlns="http://www.w3.org/2000/svg" xmlns:xlink="http://www.w3.org/1999/xlink" fill-opacity="1" color-rendering="auto" color-interpolation="auto" text-rendering="auto" stroke="black" stroke-linecap="square" width="753" stroke-miterlimit="10" shape-rendering="auto" stroke-opacity="1" fill="black" stroke-dasharray="none" font-weight="normal" stroke-width="1" height="348" font-family="'Dialog'" font-style="normal" stroke-linejoin="miter" font-size="12px" stroke-dashoffset="0" image-rendering="auto">
  <!--Generated by ySVG 2.5-->
  <defs id="genericDefs"/>
  <g>
    <defs id="defs1">
      <clipPath clipPathUnits="userSpaceOnUse" id="clipPath1">
        <path d="M0 0 L753 0 L753 348 L0 348 L0 0 Z"/>
      </clipPath>
      <clipPath clipPathUnits="userSpaceOnUse" id="clipPath2">
        <path d="M-50 -167 L703 -167 L703 181 L-50 181 L-50 -167 Z"/>
      </clipPath>
      <clipPath clipPathUnits="userSpaceOnUse" id="clipPath3">
        <path d="M0 0 L0 17 L157 17 L157 0 Z"/>
      </clipPath>
      <clipPath clipPathUnits="userSpaceOnUse" id="clipPath4">
        <path d="M0 0 L0 17 L427 17 L427 0 Z"/>
      </clipPath>
      <script type="text/ecmascript"><![CDATA[      var SVGDocument = null;
      var SVGRoot = null;
      var TrueCoords = null;
      var lastElement = null;
      var initialized = null;
      var tipGroup;
      function Init(evt)
      {
         SVGDocument = evt.target.ownerDocument;
         SVGRoot = SVGDocument.documentElement;
         TrueCoords = SVGRoot.createSVGPoint();
         initialized = evt;
      };
      function GetTrueCoords(evt)
      {
         var newScale = SVGRoot.currentScale;
         var translation = SVGRoot.currentTranslate;
         TrueCoords.x = (evt.clientX - translation.x)/newScale;
         TrueCoords.y = (evt.clientY - translation.y)/newScale;
      };
      function HideTooltip( evt )
      {
         if(initialized == null) {
           Init(evt);
         }
         if(tipGroup != null) {
           tipGroup.setAttributeNS(null, 'visibility', 'hidden');
         }
      };
      function ShowTooltip( evt )
      {
         if(initialized == null) {
           Init(evt);
         }
         GetTrueCoords( evt );
         var tipScale = 1/SVGRoot.currentScale;
         var targetElement = evt.currentTarget;
         if ( lastElement != targetElement )
         {
            var targetId = targetElement.getAttributeNS(null, 'id');
            var tipId = 'tooltip.' + targetId;
            tipGroup = SVGDocument.getElementById(tipId);
            var xPos = TrueCoords.x + (10 * tipScale);
            var yPos = TrueCoords.y + (10 * tipScale);
            tipGroup.setAttributeNS(null, 'transform', 'translate(' + xPos + ',' + yPos + ') scale(' + tipScale + ')');
            tipGroup.setAttributeNS(null, 'visibility', 'visible');
         }
      };
]]></script>
    </defs>
    <g fill="white" text-rendering="geometricPrecision" shape-rendering="geometricPrecision" transform="translate(50,167)" stroke="white">
      <rect x="-50" width="753" height="348" y="-167" clip-path="url(#clipPath2)" stroke="none"/>
    </g>
    <g id="y.node.0">
      <g text-rendering="geometricPrecision" stroke-miterlimit="1.45" stroke-dasharray="6,2" shape-rendering="geometricPrecision" transform="matrix(1,0,0,1,50,167)" stroke-linecap="butt">
        <rect x="280" y="-78" fill="none" width="120" rx="4" ry="4" height="30"/>
      </g>
      <g>
        <g text-rendering="geometricPrecision" stroke-miterlimit="1.45" shape-rendering="geometricPrecision" font-family="sans-serif" transform="matrix(1,0,0,1,50,167)" stroke-linecap="butt">
          <text x="304.7441" xml:space="preserve" y="-65.8301" stroke="none">Parcellation</text>
        </g>
        <g text-rendering="geometricPrecision" stroke-miterlimit="1.45" shape-rendering="geometricPrecision" font-family="sans-serif" transform="matrix(1,0,0,1,50,167)" stroke-linecap="butt">
          <text x="317.9688" xml:space="preserve" y="-51.8613" stroke="none">Artifact</text>
        </g>
      </g>
    </g>
    <g id="y.node.1">
      <g text-rendering="geometricPrecision" stroke-miterlimit="1.45" stroke-width="2" shape-rendering="geometricPrecision" transform="matrix(1,0,0,1,50,167)" stroke-linecap="butt">
        <rect x="-20.9" y="-5.84" fill="none" width="120" rx="4" ry="4" height="30"/>
      </g>
      <g>
        <g text-rendering="geometricPrecision" stroke-miterlimit="1.45" shape-rendering="geometricPrecision" font-family="sans-serif" transform="matrix(1,0,0,1,50,167)" stroke-linecap="butt">
          <text x="-14.2496" xml:space="preserve" y="13.3143" stroke="none">Parcellation Label</text>
        </g>
      </g>
    </g>
    <g id="y.node.2">
      <g stroke-linecap="round" transform="matrix(1,0,0,1,50,167)" stroke-dashoffset="2" text-rendering="geometricPrecision" shape-rendering="geometricPrecision" stroke-dasharray="0,8" stroke-width="2" stroke-miterlimit="1.45">
        <rect x="358" y="-166" fill="none" width="120" rx="4" ry="4" height="30"/>
      </g>
      <g>
        <g text-rendering="geometricPrecision" stroke-miterlimit="1.45" shape-rendering="geometricPrecision" font-family="sans-serif" transform="matrix(1,0,0,1,50,167)" stroke-linecap="butt">
          <text x="394.9082" xml:space="preserve" y="-146.8457" stroke="none">Species</text>
        </g>
      </g>
    </g>
    <g id="y.node.3">
      <g stroke-linecap="round" transform="matrix(1,0,0,1,50,167)" stroke-dashoffset="2" text-rendering="geometricPrecision" shape-rendering="geometricPrecision" stroke-dasharray="0,8" stroke-width="2" stroke-miterlimit="1.45">
        <rect x="202" y="-166" fill="none" width="120" rx="4" ry="4" height="30"/>
      </g>
      <g>
        <g text-rendering="geometricPrecision" stroke-miterlimit="1.45" shape-rendering="geometricPrecision" font-family="sans-serif" transform="matrix(1,0,0,1,50,167)" stroke-linecap="butt">
          <text x="216.2646" xml:space="preserve" y="-153.8301" stroke="none">Developmental</text>
          <text x="242.7549" xml:space="preserve" y="-139.8613" stroke="none"> Stage</text>
        </g>
      </g>
    </g>
    <g id="y.node.4">
      <g text-rendering="geometricPrecision" stroke-miterlimit="1.45" stroke-dasharray="6,2" shape-rendering="geometricPrecision" transform="matrix(1,0,0,1,50,167)" stroke-linecap="butt">
        <rect x="130" y="-5.84" fill="none" width="120" rx="4" ry="4" height="30"/>
      </g>
      <g>
        <g text-rendering="geometricPrecision" stroke-miterlimit="1.45" shape-rendering="geometricPrecision" font-family="sans-serif" transform="matrix(1,0,0,1,50,167)" stroke-linecap="butt">
          <text x="152.4941" xml:space="preserve" y="13.3143" stroke="none">Terminology</text>
        </g>
      </g>
    </g>
    <g id="y.node.5">
      <g text-rendering="geometricPrecision" stroke-miterlimit="1.45" stroke-width="2" shape-rendering="geometricPrecision" transform="matrix(1,0,0,1,50,167)" stroke-linecap="butt">
        <rect x="280" y="66.32" fill="none" width="120" rx="4" ry="4" height="30"/>
      </g>
      <g>
        <g text-rendering="geometricPrecision" stroke-miterlimit="1.45" shape-rendering="geometricPrecision" font-family="sans-serif" transform="matrix(1,0,0,1,50,167)" stroke-linecap="butt">
          <text x="325.0732" xml:space="preserve" y="85.4743" stroke="none">Atlas</text>
        </g>
      </g>
    </g>
    <g id="y.node.6">
      <g stroke-linecap="round" transform="matrix(1,0,0,1,50,167)" text-rendering="geometricPrecision" shape-rendering="geometricPrecision" stroke-dasharray="8,6,0,6" stroke-width="2" stroke-miterlimit="1.45">
        <rect x="128.2" y="66.32" fill="none" width="120" rx="4" ry="4" height="30"/>
      </g>
      <g>
        <g text-rendering="geometricPrecision" stroke-miterlimit="1.45" shape-rendering="geometricPrecision" font-family="sans-serif" transform="matrix(1,0,0,1,50,167)" stroke-linecap="butt">
          <text x="130.2273" xml:space="preserve" y="85.4743" stroke="none">Parcellation Region</text>
        </g>
      </g>
    </g>
    <g id="y.node.7">
      <g text-rendering="geometricPrecision" stroke-miterlimit="1.45" stroke-dasharray="6,2" shape-rendering="geometricPrecision" transform="matrix(1,0,0,1,50,167)" stroke-linecap="butt">
        <rect x="280.9" y="-5.84" fill="none" width="120" rx="4" ry="4" height="30"/>
      </g>
      <g>
        <g text-rendering="geometricPrecision" stroke-miterlimit="1.45" shape-rendering="geometricPrecision" font-family="sans-serif" transform="matrix(1,0,0,1,50,167)" stroke-linecap="butt">
          <text x="287.7115" xml:space="preserve" y="13.3143" stroke="none">Coordinate Space</text>
        </g>
      </g>
    </g>
    <g onmouseout="HideTooltip(evt)" id="y.node.8" onmousemove="ShowTooltip(evt)">
      <g text-rendering="geometricPrecision" stroke-miterlimit="1.45" stroke-dasharray="6,2" shape-rendering="geometricPrecision" transform="matrix(1,0,0,1,50,167)" stroke-linecap="butt">
        <rect x="431.8" y="-5.84" fill="none" width="120" rx="4" ry="4" height="30"/>
      </g>
      <g>
        <g text-rendering="geometricPrecision" stroke-miterlimit="1.45" shape-rendering="geometricPrecision" font-family="sans-serif" transform="matrix(1,0,0,1,50,167)" stroke-linecap="butt">
          <text x="457.4904" xml:space="preserve" y="13.3143" stroke="none">Delineation</text>
        </g>
      </g>
    </g>
    <g id="y.node.9">
      <g text-rendering="geometricPrecision" stroke-miterlimit="1.45" shape-rendering="geometricPrecision" transform="matrix(1,0,0,1,50,167)" stroke-linecap="butt">
        <rect x="431.8" y="-78" fill="none" width="120" rx="4" ry="4" height="30"/>
      </g>
      <g>
        <g text-rendering="geometricPrecision" stroke-miterlimit="1.45" shape-rendering="geometricPrecision" font-family="sans-serif" transform="matrix(1,0,0,1,50,167)" stroke-linecap="butt">
          <text x="457.4904" xml:space="preserve" y="-65.8301" stroke="none">Delineation</text>
          <text x="469.6223" xml:space="preserve" y="-51.8613" stroke="none">Criteria</text>
        </g>
      </g>
    </g>
    <g onmouseout="HideTooltip(evt)" id="y.node.10" onmousemove="ShowTooltip(evt)">
      <g text-rendering="geometricPrecision" stroke-miterlimit="1.45" shape-rendering="geometricPrecision" transform="matrix(1,0,0,1,50,167)" stroke-linecap="butt">
        <rect x="-20.9" y="66.32" fill="none" width="120" rx="4" ry="4" height="30"/>
      </g>
      <g>
        <g text-rendering="geometricPrecision" stroke-miterlimit="1.45" shape-rendering="geometricPrecision" font-family="sans-serif" transform="matrix(1,0,0,1,50,167)" stroke-linecap="butt">
          <text x="2.6488" xml:space="preserve" y="78.4899" stroke="none">Registration</text>
          <text x="16.9223" xml:space="preserve" y="92.4587" stroke="none">Criteria</text>
        </g>
      </g>
    </g>
    <g id="y.node.11">
      <g text-rendering="geometricPrecision" stroke-miterlimit="1.45" stroke-dasharray="6,2" shape-rendering="geometricPrecision" transform="matrix(1,0,0,1,50,167)" stroke-linecap="butt">
        <rect x="130" y="126.32" fill="none" width="120" rx="4" ry="4" height="30"/>
      </g>
      <g>
        <g text-rendering="geometricPrecision" stroke-miterlimit="1.45" shape-rendering="geometricPrecision" font-family="sans-serif" transform="matrix(1,0,0,1,50,167)" stroke-linecap="butt">
          <text x="156.2383" xml:space="preserve" y="138.4899" stroke="none">Anatomical</text>
          <text x="166.5039" xml:space="preserve" y="152.4587" stroke="none">Dataset</text>
        </g>
      </g>
    </g>
    <g id="y.node.12">
      <g text-rendering="geometricPrecision" stroke-miterlimit="1.45" stroke-dasharray="6,2" shape-rendering="geometricPrecision" transform="matrix(1,0,0,1,50,167)" stroke-linecap="butt">
        <rect x="582.7" y="-5.84" fill="none" width="120" rx="4" ry="4" height="30"/>
      </g>
      <g>
        <g text-rendering="geometricPrecision" stroke-miterlimit="1.45" shape-rendering="geometricPrecision" font-family="sans-serif" transform="matrix(1,0,0,1,50,167)" stroke-linecap="butt">
          <text x="608.9383" xml:space="preserve" y="6.3299" stroke="none">Anatomical</text>
          <text x="619.2039" xml:space="preserve" y="20.2987" stroke="none">Dataset</text>
        </g>
      </g>
    </g>
    <g id="y.node.13">
      <g stroke-linecap="round" transform="matrix(1,0,0,1,50,167)" text-rendering="geometricPrecision" shape-rendering="geometricPrecision" stroke-dasharray="8,6,0,6" stroke-width="2" stroke-miterlimit="1.45">
        <rect x="-20.9" y="126.32" fill="none" width="120" rx="4" ry="4" height="30"/>
      </g>
      <g>
        <g text-rendering="geometricPrecision" stroke-miterlimit="1.45" shape-rendering="geometricPrecision" font-family="sans-serif" transform="matrix(1,0,0,1,50,167)" stroke-linecap="butt">
          <text x="2.6488" xml:space="preserve" y="145.4743" stroke="none">Registration</text>
        </g>
      </g>
    </g>
    <g id="y.node.14">
      <g text-rendering="geometricPrecision" stroke-miterlimit="1.45" shape-rendering="geometricPrecision" transform="matrix(1,0,0,1,50,167)" stroke-linecap="butt">
        <rect x="130" y="-78" fill="none" width="120" rx="4" ry="4" height="30"/>
      </g>
      <g>
        <g text-rendering="geometricPrecision" stroke-miterlimit="1.45" shape-rendering="geometricPrecision" font-family="sans-serif" transform="matrix(1,0,0,1,50,167)" stroke-linecap="butt">
          <text x="137.1221" xml:space="preserve" y="-65.8301" stroke="none">Spatial alignment</text>
          <text x="168.7129" xml:space="preserve" y="-51.8613" stroke="none">criteria</text>
        </g>
      </g>
    </g>
    <g id="y.edge.1">
      <g text-rendering="geometricPrecision" stroke-miterlimit="1.45" stroke-dasharray="4,3,0,3" shape-rendering="geometricPrecision" transform="matrix(1,0,0,1,50,167)" stroke-linecap="round">
        <path fill="none" d="M399.9854 -63 L418 -63 L418 -128.0039"/>
        <path d="M418 -136.0039 L413 -124.0039 L418 -127.0039 L423 -124.0039 Z" stroke="none"/>
      </g>
    </g>
    <g id="y.edge.2">
      <g text-rendering="geometricPrecision" stroke-miterlimit="1.45" stroke-dasharray="4,3,0,3" shape-rendering="geometricPrecision" transform="matrix(1,0,0,1,50,167)" stroke-linecap="round">
        <path fill="none" d="M280.0146 -63 L262 -63 L262 -128.0039"/>
        <path d="M262 -136.0039 L257 -124.0039 L262 -127.0039 L267 -124.0039 Z" stroke="none"/>
      </g>
      <g>
        <g stroke-linecap="round" transform="matrix(1,0,0,1,50,167)" fill="white" text-rendering="geometricPrecision" shape-rendering="geometricPrecision" stroke-dasharray="4,3,0,3" stroke="white" stroke-miterlimit="1.45">
          <rect x="225.7412" width="71.5176" height="17.9688" y="-111.4844" stroke="none"/>
        </g>
        <g text-rendering="geometricPrecision" stroke-miterlimit="1.45" shape-rendering="geometricPrecision" font-family="sans-serif" transform="matrix(1,0,0,1,50,167)" stroke-linecap="butt">
          <text x="227.7412" xml:space="preserve" y="-98.3457" stroke="none">isDefinedIn</text>
        </g>
      </g>
    </g>
    <g id="y.edge.10">
      <g text-rendering="geometricPrecision" stroke-miterlimit="1.45" stroke-dasharray="6,2" shape-rendering="geometricPrecision" transform="matrix(1,0,0,1,50,167)" stroke-linecap="butt">
        <path fill="none" d="M99.0735 9.16 L121.9844 9.16"/>
        <path d="M129.9844 9.16 L117.9844 4.16 L120.9844 9.16 L117.9844 14.16 Z" stroke="none"/>
      </g>
    </g>
    <g id="y.edge.0">
      <g text-rendering="geometricPrecision" stroke-miterlimit="1.45" shape-rendering="geometricPrecision" transform="matrix(1,0,0,1,50,167)" stroke-linecap="butt">
        <path fill="none" d="M249.5249 -3.7204 L310.4025 -43.6076"/>
        <path d="M317.0941 -47.992 L304.3164 -45.5977 L309.566 -43.0596 L309.7969 -37.2332 Z" stroke="none"/>
      </g>
    </g>
    <g id="y.edge.7">
      <g stroke-linecap="round" transform="matrix(1,0,0,1,50,167)" stroke-dashoffset="2" text-rendering="geometricPrecision" shape-rendering="geometricPrecision" stroke-dasharray="0,8" stroke-width="2" stroke-miterlimit="1.45">
        <path fill="none" d="M316.4085 66.3335 L256.177 28.0712"/>
        <path d="M248.5802 23.2454 L256.9592 35.2322 L257.1266 28.6745 L262.9916 25.7362 Z" stroke="none"/>
      </g>
    </g>
    <g id="y.edge.3">
      <g text-rendering="geometricPrecision" stroke-miterlimit="1.45" stroke-dasharray="6,2" shape-rendering="geometricPrecision" transform="matrix(1,0,0,1,50,167)" stroke-linecap="butt">
        <path fill="none" d="M248.2292 81.32 L271.9836 81.32"/>
        <path d="M279.9836 81.32 L267.9836 76.32 L270.9836 81.32 L267.9836 86.32 Z" stroke="none"/>
      </g>
    </g>
    <g id="y.edge.4">
      <g text-rendering="geometricPrecision" stroke-miterlimit="1.45" stroke-dasharray="6,2" shape-rendering="geometricPrecision" transform="matrix(1,0,0,1,50,167)" stroke-linecap="butt">
        <path fill="none" d="M165.1931 66.3315 L104.9296 27.0713"/>
        <path d="M98.2265 22.7044 L105.5518 33.4441 L105.7674 27.6172 L111.0104 25.0653 Z" stroke="none"/>
      </g>
      <g>
        <g stroke-linecap="butt" transform="matrix(1,0,0,1,50,167)" fill="white" text-rendering="geometricPrecision" shape-rendering="geometricPrecision" stroke-dasharray="6,2" stroke="white" stroke-miterlimit="1.45">
          <rect x="94.9646" width="75.707" height="17.9688" y="36.2556" stroke="none"/>
        </g>
        <g text-rendering="geometricPrecision" stroke-miterlimit="1.45" shape-rendering="geometricPrecision" font-family="sans-serif" transform="matrix(1,0,0,1,50,167)" stroke-linecap="butt">
          <text x="96.9646" xml:space="preserve" y="49.3943" stroke="none">isDefinedBy</text>
        </g>
      </g>
    </g>
    <g id="y.edge.9">
      <g stroke-linecap="round" transform="matrix(1,0,0,1,50,167)" stroke-dashoffset="2" text-rendering="geometricPrecision" shape-rendering="geometricPrecision" stroke-dasharray="0,8" stroke-width="2" stroke-miterlimit="1.45">
        <path fill="none" d="M340.1868 66.3454 L340.6007 33.1537"/>
        <path d="M340.713 24.1544 L334.92 37.5832 L340.5867 34.2786 L346.1692 37.7235 Z" stroke="none"/>
      </g>
      <g>
        <g stroke-linecap="round" transform="matrix(1,0,0,1,50,167)" stroke-dashoffset="2" fill="white" text-rendering="geometricPrecision" shape-rendering="geometricPrecision" stroke-dasharray="0,8" stroke="white" stroke-width="2" stroke-miterlimit="1.45">
          <rect x="309.4513" width="61.8203" height="17.9688" y="43.3512" stroke="none"/>
        </g>
        <g text-rendering="geometricPrecision" stroke-miterlimit="1.45" shape-rendering="geometricPrecision" font-family="sans-serif" transform="matrix(1,0,0,1,50,167)" stroke-linecap="butt">
          <text x="311.4514" xml:space="preserve" y="56.4899" stroke="none">combines</text>
        </g>
      </g>
    </g>
    <g id="y.edge.5">
      <g text-rendering="geometricPrecision" stroke-miterlimit="1.45" shape-rendering="geometricPrecision" transform="matrix(1,0,0,1,50,167)" stroke-linecap="butt">
        <path fill="none" d="M340.7132 -5.8146 L340.2868 -40.0062"/>
        <path d="M340.187 -48.0056 L335.337 -35.9442 L340.2993 -39.0063 L345.3363 -36.0689 Z" stroke="none"/>
      </g>
      <g>
        <g stroke-linecap="butt" transform="matrix(1,0,0,1,50,167)" fill="white" text-rendering="geometricPrecision" shape-rendering="geometricPrecision" stroke="white" stroke-miterlimit="1.45">
          <rect x="305.1811" width="70.7148" height="17.9688" y="-28.8088" stroke="none"/>
          <text fill="black" x="307.1811" xml:space="preserve" y="-15.6701" font-family="sans-serif" stroke="none">subClassOf</text>
        </g>
      </g>
    </g>
    <g id="y.edge.8">
      <g stroke-linecap="round" transform="matrix(1,0,0,1,50,167)" stroke-dashoffset="2" text-rendering="geometricPrecision" shape-rendering="geometricPrecision" stroke-dasharray="0,8" stroke-width="2" stroke-miterlimit="1.45">
        <path fill="none" d="M364.1189 66.3127 L425.6457 28.0295"/>
        <path d="M433.2872 23.2748 L418.8533 25.6309 L424.6905 28.6238 L424.7967 35.1828 Z" stroke="none"/>
      </g>
    </g>
    <g id="y.edge.6">
      <g text-rendering="geometricPrecision" stroke-miterlimit="1.45" shape-rendering="geometricPrecision" transform="matrix(1,0,0,1,50,167)" stroke-linecap="butt">
        <path fill="none" d="M433.2214 -4.9102 L370.8461 -43.7786"/>
        <path d="M364.0564 -48.0095 L371.5966 -37.4197 L371.6948 -43.2498 L376.8852 -45.9067 Z" stroke="none"/>
      </g>
    </g>
    <g id="y.edge.11">
      <g text-rendering="geometricPrecision" stroke-miterlimit="1.45" stroke-dasharray="6,2" shape-rendering="geometricPrecision" transform="matrix(1,0,0,1,50,167)" stroke-linecap="butt">
        <path fill="none" d="M491.8 -5.8146 L491.8 -40.0056"/>
        <path d="M491.8 -48.0056 L486.8 -36.0056 L491.8 -39.0056 L496.8 -36.0056 Z" stroke="none"/>
      </g>
      <g>
        <g stroke-linecap="butt" transform="matrix(1,0,0,1,50,167)" fill="white" text-rendering="geometricPrecision" shape-rendering="geometricPrecision" stroke-dasharray="6,2" stroke="white" stroke-miterlimit="1.45">
          <rect x="453.9465" width="75.707" height="17.9688" y="-28.8088" stroke="none"/>
        </g>
        <g text-rendering="geometricPrecision" stroke-miterlimit="1.45" shape-rendering="geometricPrecision" font-family="sans-serif" transform="matrix(1,0,0,1,50,167)" stroke-linecap="butt">
          <text x="455.9465" xml:space="preserve" y="-15.6701" stroke="none">isDefinedBy</text>
        </g>
      </g>
    </g>
    <g id="y.edge.12">
      <g stroke-linecap="round" transform="matrix(1,0,0,1,50,167)" stroke-dashoffset="2" text-rendering="geometricPrecision" shape-rendering="geometricPrecision" stroke-dasharray="0,8" stroke-width="2" stroke-miterlimit="1.45">
        <path fill="none" d="M99.1259 81.32 L119.2228 81.32"/>
        <path d="M128.2228 81.32 L114.7228 75.695 L118.0978 81.32 L114.7228 86.945 Z" stroke="none"/>
      </g>
      <g>
        <g text-rendering="geometricPrecision" stroke-miterlimit="1.45" shape-rendering="geometricPrecision" font-family="sans-serif" transform="matrix(1,0,0,1,50,167)" stroke-linecap="butt">
          <text x="75.5318" xml:space="preserve" y="115.4743" stroke="none">mapsDataTo</text>
        </g>
      </g>
    </g>
    <g id="y.edge.13">
      <g text-rendering="geometricPrecision" stroke-miterlimit="1.45" stroke-dasharray="6,2" shape-rendering="geometricPrecision" transform="matrix(1,0,0,1,50,167)" stroke-linecap="butt">
        <path fill="none" d="M551.8137 9.16 L574.6564 9.16"/>
        <path d="M582.6564 9.16 L570.6564 4.16 L573.6564 9.16 L570.6564 14.16 Z" stroke="none"/>
      </g>
      <g>
        <g text-rendering="geometricPrecision" stroke-miterlimit="1.45" shape-rendering="geometricPrecision" font-family="sans-serif" transform="matrix(1,0,0,1,50,167)" stroke-linecap="butt">
          <text x="534.127" xml:space="preserve" y="43.3143" stroke="none">parcellates</text>
        </g>
      </g>
    </g>
    <g id="y.edge.14">
      <g text-rendering="geometricPrecision" stroke-miterlimit="1.45" stroke-dasharray="6,2" shape-rendering="geometricPrecision" transform="matrix(1,0,0,1,50,167)" stroke-linecap="butt">
        <path fill="none" d="M39.1 126.2907 L39.1 104.2956"/>
        <path d="M39.1 96.2956 L34.1 108.2956 L39.1 105.2956 L44.1 108.2956 Z" stroke="none"/>
      </g>
      <g>
        <g text-rendering="geometricPrecision" stroke-miterlimit="1.45" shape-rendering="geometricPrecision" font-family="sans-serif" transform="matrix(1,0,0,1,50,167)" stroke-linecap="butt">
          <text x="-47.2335" xml:space="preserve" y="116.4983" stroke="none">isDefinedBy</text>
        </g>
      </g>
    </g>
    <g id="y.edge.15">
      <g text-rendering="geometricPrecision" stroke-miterlimit="1.45" stroke-dasharray="6,2" shape-rendering="geometricPrecision" transform="matrix(1,0,0,1,50,167)" stroke-linecap="butt">
        <path fill="none" d="M99.1137 141.32 L121.9565 141.32"/>
        <path d="M129.9565 141.32 L117.9565 136.32 L120.9565 141.32 L117.9565 146.32 Z" stroke="none"/>
      </g>
      <g>
        <g text-rendering="geometricPrecision" stroke-miterlimit="1.45" shape-rendering="geometricPrecision" font-family="sans-serif" transform="matrix(1,0,0,1,50,167)" stroke-linecap="butt">
          <text x="81.427" xml:space="preserve" y="175.4743" stroke="none">parcellates</text>
        </g>
      </g>
    </g>
    <g id="y.edge.16">
      <g text-rendering="geometricPrecision" stroke-miterlimit="1.45" stroke-dasharray="6,2" shape-rendering="geometricPrecision" transform="matrix(1,0,0,1,50,167)" stroke-linecap="butt">
        <path fill="none" d="M282.8196 -5.2991 L253.8214 -42.9216"/>
        <path d="M248.9376 -49.2579 L252.3031 -36.7011 L254.4318 -42.1296 L260.2234 -42.8059 Z" stroke="none"/>
      </g>
      <g>
        <g text-rendering="geometricPrecision" stroke-miterlimit="1.45" shape-rendering="geometricPrecision" font-family="sans-serif" transform="matrix(1,0,0,1,50,167)" stroke-linecap="butt">
          <text x="187.3669" xml:space="preserve" y="-23.2764" stroke="none">isDefinedBy</text>
        </g>
      </g>
    </g>
  </g>
</svg>
