<?xml version="1.0" encoding="UTF-8" standalone="no"?>
<!-- Created with Inkscape (http://www.inkscape.org/) -->

<svg
   xmlns:dc="http://purl.org/dc/elements/1.1/"
   xmlns:cc="http://creativecommons.org/ns#"
   xmlns:rdf="http://www.w3.org/1999/02/22-rdf-syntax-ns#"
   xmlns:svg="http://www.w3.org/2000/svg"
   xmlns="http://www.w3.org/2000/svg"
   xmlns:sodipodi="http://sodipodi.sourceforge.net/DTD/sodipodi-0.dtd"
   xmlns:inkscape="http://www.inkscape.org/namespaces/inkscape"
   width="1180.806"
   height="336.54257"
   viewBox="0 0 1180.806 336.54258"
   id="svg2"
   version="1.1"
   inkscape:version="0.91 r13725"
   sodipodi:docname="parcellation-visual-base.svg"
   inkscape:export-filename="/home/tom/git/NIF-Ontology/docs/images/parcellation-visual.png"
   inkscape:export-xdpi="160.26781"
   inkscape:export-ydpi="160.26781">
  <defs
     id="defs4" />
  <sodipodi:namedview
     id="base"
     pagecolor="#ffffff"
     bordercolor="#666666"
     borderopacity="1.0"
     inkscape:pageopacity="1"
     inkscape:pageshadow="2"
     inkscape:zoom="0.90509668"
     inkscape:cx="620.94151"
     inkscape:cy="-1.2603817"
     inkscape:document-units="px"
     inkscape:current-layer="layer1"
     showgrid="false"
     inkscape:window-width="1920"
     inkscape:window-height="1060"
     inkscape:window-x="1200"
     inkscape:window-y="300"
     inkscape:window-maximized="1"
     units="px"
     fit-margin-top="5"
     fit-margin-left="5"
     fit-margin-right="5"
     fit-margin-bottom="5" />
  <metadata
     id="metadata7">
    <rdf:RDF>
      <cc:Work
         rdf:about="">
        <dc:format>image/svg+xml</dc:format>
        <dc:type
           rdf:resource="http://purl.org/dc/dcmitype/StillImage" />
        <dc:title></dc:title>
      </cc:Work>
    </rdf:RDF>
  </metadata>
  <g
     inkscape:label="Layer 1"
     inkscape:groupmode="layer"
     id="layer1"
     transform="translate(-54.350586,-470.81963)">
    <path
       style="fill:none;fill-rule:evenodd;stroke:#000000;stroke-width:4;stroke-linecap:butt;stroke-linejoin:round;stroke-miterlimit:4;stroke-dasharray:none;stroke-opacity:1"
       d="m 379.94718,693.22945 c -24.80387,-32.3856 -24.91549,-93.19735 6.06091,-122.22846 30.9764,-29.03111 92.67064,-16.20103 132.32999,2.0203 39.65934,18.22134 69.47856,61.11931 85.86296,96.97465 16.3844,35.85534 34.0002,76.43698 14.14214,106.06602 -14.73244,21.9814 -53.40608,29.90886 -76.77159,20.20305 -23.36551,-9.70581 -19.87604,-47.70326 -36.3655,-62.62946 -16.48946,-14.9262 -34.20728,-19.70832 -55.55839,-25.25381 -46.1911,-11.99715 -55.24356,3.72368 -69.70052,-15.15229 z"
       id="path4138"
       inkscape:connector-curvature="0"
       sodipodi:nodetypes="azzzazcsa" />
    <path
       style="opacity:1;fill:#000000;fill-opacity:0;fill-rule:nonzero;stroke:#000000;stroke-width:4;stroke-linecap:round;stroke-linejoin:round;stroke-miterlimit:4;stroke-dasharray:none;stroke-dashoffset:0;stroke-opacity:1"
       id="path4136"
       sodipodi:type="arc"
       sodipodi:cx="464.45746"
       sodipodi:cy="670.57263"
       sodipodi:rx="1.9238827"
       sodipodi:ry="1.7827441"
       sodipodi:start="0"
       sodipodi:end="6.2806022"
       d="m 466.38134,670.57263 a 1.9238827,1.7827441 0 0 1 -1.92264,1.78275 1.9238827,1.7827441 0 0 1 -1.92512,-1.78045 1.9238827,1.7827441 0 0 1 1.92015,-1.78504 1.9238827,1.7827441 0 0 1 1.9276,1.77814"
       sodipodi:open="true" />
    <path
       style="fill:none;fill-rule:evenodd;stroke:#000000;stroke-width:2;stroke-linecap:butt;stroke-linejoin:round;stroke-miterlimit:4;stroke-dasharray:8, 16;stroke-dashoffset:0;stroke-opacity:1"
       d="m 679.94717,693.23571 c -24.80386,-32.3856 -24.91548,-93.19734 6.06091,-122.22844 30.9764,-29.03111 92.67065,-16.20103 132.33,2.0203 39.65934,18.22134 69.47856,61.1193 85.86296,96.97463 16.3844,35.85534 34.0002,76.43698 14.14214,106.06602 -14.73244,21.9814 -53.40608,29.90886 -76.77159,20.20305 -23.36551,-9.70581 -19.87604,-47.70326 -36.3655,-62.62946 -16.48946,-14.9262 -34.20728,-19.70832 -55.5584,-25.25381 -46.1911,-11.99715 -55.24356,3.72368 -69.70052,-15.15229 z"
       id="path4138-5"
       inkscape:connector-curvature="0"
       sodipodi:nodetypes="azzzazcsa" />
    <path
       style="opacity:1;fill:#000000;fill-opacity:0;fill-rule:nonzero;stroke:#000000;stroke-width:4;stroke-linecap:round;stroke-linejoin:round;stroke-miterlimit:4;stroke-dasharray:none;stroke-dashoffset:0;stroke-opacity:1"
       id="path4136-6"
       sodipodi:type="arc"
       sodipodi:cx="764.45752"
       sodipodi:cy="670.57892"
       sodipodi:rx="1.9238827"
       sodipodi:ry="1.7827441"
       sodipodi:start="0"
       sodipodi:end="6.2806022"
       d="m 766.3814,670.57892 a 1.9238827,1.7827441 0 0 1 -1.92264,1.78274 1.9238827,1.7827441 0 0 1 -1.92512,-1.78044 1.9238827,1.7827441 0 0 1 1.92015,-1.78504 1.9238827,1.7827441 0 0 1 1.92761,1.77813"
       sodipodi:open="true" />
    <path
       style="fill:none;fill-rule:evenodd;stroke:#ffffff;stroke-width:4;stroke-linecap:butt;stroke-linejoin:round;stroke-miterlimit:4;stroke-dasharray:16, 16;stroke-dashoffset:0;stroke-opacity:0"
       d="M 79.94717,693.22945 C 55.143308,660.84385 55.031688,600.03211 86.00808,571.001 c 30.9764,-29.03111 92.67065,-16.20103 132.33,2.0203 39.65934,18.22134 69.47856,61.11931 85.86296,96.97464 16.3844,35.85534 34.0002,76.43698 14.14214,106.06602 -14.73244,21.9814 -53.40608,29.90886 -76.77159,20.20305 -23.36551,-9.70581 -19.87604,-47.70326 -36.3655,-62.62946 -16.48946,-14.9262 -34.20728,-19.70832 -55.5584,-25.25381 -46.1911,-11.99715 -55.24356,3.72368 -69.70052,-15.15229 z"
       id="path4138-5-2"
       inkscape:connector-curvature="0"
       sodipodi:nodetypes="azzzazcsa" />
    <path
       style="opacity:1;fill:#000000;fill-opacity:0;fill-rule:nonzero;stroke:#000000;stroke-width:4;stroke-linecap:round;stroke-linejoin:round;stroke-miterlimit:4;stroke-dasharray:none;stroke-dashoffset:0;stroke-opacity:1"
       id="path4136-6-9"
       sodipodi:type="arc"
       sodipodi:cx="164.45749"
       sodipodi:cy="670.57263"
       sodipodi:rx="1.9238827"
       sodipodi:ry="1.7827441"
       sodipodi:start="0"
       sodipodi:end="6.2806022"
       d="m 166.38137,670.57263 a 1.9238827,1.7827441 0 0 1 -1.92264,1.78275 1.9238827,1.7827441 0 0 1 -1.92512,-1.78045 1.9238827,1.7827441 0 0 1 1.92015,-1.78504 1.9238827,1.7827441 0 0 1 1.92761,1.77814"
       sodipodi:open="true" />
    <flowRoot
       xml:space="preserve"
       id="flowRoot4279"
       style="font-style:normal;font-weight:normal;font-size:17.5px;line-height:125%;font-family:'Liberation Sans';letter-spacing:0px;word-spacing:0px;fill:#000000;fill-opacity:1;stroke:none;stroke-width:1px;stroke-linecap:butt;stroke-linejoin:miter;stroke-opacity:1"
       transform="translate(-26.00708,248.73013)"><flowRegion
         id="flowRegion4281"><rect
           id="rect4283"
           width="282.43964"
           height="32.095993"
           x="84.852814"
           y="222.54808"
           style="font-size:17.5px" /></flowRegion><flowPara
         id="flowPara4285"
         style="font-style:normal;font-variant:normal;font-weight:bold;font-stretch:normal;font-size:17.5px;font-family:'Liberation Sans';-inkscape-font-specification:'Liberation Sans Bold'">Spatial semantic region</flowPara></flowRoot>    <text
       xml:space="preserve"
       style="font-style:normal;font-weight:normal;font-size:15px;line-height:125%;font-family:'Liberation Sans';letter-spacing:0px;word-spacing:0px;fill:#000000;fill-opacity:1;stroke:none;stroke-width:1px;stroke-linecap:butt;stroke-linejoin:miter;stroke-opacity:1"
       x="658.28247"
       y="488.72833"
       id="text4289"
       sodipodi:linespacing="125%"><tspan
         sodipodi:role="line"
         x="658.28247"
         y="488.72833"
         id="tspan4293"
         style="font-style:normal;font-variant:normal;font-weight:bold;font-stretch:normal;font-size:17.5px;font-family:'Liberation Sans';-inkscape-font-specification:'Liberation Sans Bold'">Probablistic parcellation region</tspan></text>
    <text
       xml:space="preserve"
       style="font-style:normal;font-weight:normal;font-size:15px;line-height:125%;font-family:'Liberation Sans';letter-spacing:0px;word-spacing:0px;fill:#000000;fill-opacity:1;stroke:none;stroke-width:1px;stroke-linecap:butt;stroke-linejoin:miter;stroke-opacity:1"
       x="359.86328"
       y="488.72208"
       id="text4297"
       sodipodi:linespacing="125%"><tspan
         sodipodi:role="line"
         id="tspan4299"
         x="359.86328"
         y="488.72208"
         style="font-style:normal;font-variant:normal;font-weight:bold;font-stretch:normal;font-size:17.5px;font-family:'Liberation Sans';-inkscape-font-specification:'Liberation Sans Bold'">Parcellation region</tspan></text>
    <path
       style="fill:none;fill-rule:evenodd;stroke:#000000;stroke-width:2;stroke-linecap:round;stroke-linejoin:round;stroke-miterlimit:4;stroke-dasharray:2, 8;stroke-dashoffset:0;stroke-opacity:1"
       d="m 127.15459,653.65469 c 2.01457,-6.86044 9.36454,-12.04961 16.23948,-14.01416 16.39699,-4.68555 40.93497,2.8506 50.54428,7.91315 9.60932,5.06256 9.28982,4.90991 9.61297,10.18894 0.32314,5.27902 -9.33023,8.48891 -10.50073,14.2803 -1.11723,5.52785 4.57165,9.67633 3.9427,16.45305 -0.62895,6.77672 1.77963,16.89651 -9.75836,21.83482 -11.53798,4.93832 -38.19518,-6.0503 -48.41554,-17.21809 -10.22036,-11.16779 -15.52737,-26.28443 -11.6648,-39.43801 z"
       id="path4138-5-9"
       inkscape:connector-curvature="0"
       sodipodi:nodetypes="aazcazzza" />
    <flowRoot
       xml:space="preserve"
       id="flowRoot4504"
       style="font-style:normal;font-weight:normal;font-size:15px;line-height:125%;font-family:'Liberation Sans';letter-spacing:0px;word-spacing:0px;fill:#000000;fill-opacity:1;stroke:none;stroke-width:1px;stroke-linecap:butt;stroke-linejoin:miter;stroke-opacity:1"
       transform="translate(-44.044922,456.2098)"><flowRegion
         id="flowRegion4506"><rect
           id="rect4508"
           width="295.70728"
           height="119.29308"
           x="104.04572"
           y="38.700321" /></flowRegion><flowPara
         id="flowPara4516"
         style="font-style:normal;font-variant:normal;font-weight:normal;font-stretch:normal;line-height:129.99999523%;font-family:'Liberation Sans';-inkscape-font-specification:'Liberation Sans';text-align:start;text-anchor:start">A <flowSpan
   style="font-weight:bold"
   id="flowSpan5246">point </flowSpan>or the unbounded connected spatial volume defined by that point.</flowPara><flowPara
         style="font-style:normal;font-variant:normal;font-weight:normal;font-stretch:normal;line-height:129.99999523%;font-family:'Liberation Sans';-inkscape-font-specification:'Liberation Sans';text-align:start;text-anchor:start"
         id="flowPara4668"><flowSpan
   style="font-weight:bold"
   id="flowSpan4181">Delineated by </flowSpan>many parcellation regions.</flowPara></flowRoot>    <flowRoot
       xml:space="preserve"
       id="flowRoot4518"
       style="font-style:normal;font-weight:normal;font-size:15px;line-height:125%;font-family:'Liberation Sans';letter-spacing:0px;word-spacing:0px;fill:#000000;fill-opacity:1;stroke:none;stroke-width:1px;stroke-linecap:butt;stroke-linejoin:miter;stroke-opacity:1"
       transform="translate(363.01562,416.82154)"><flowRegion
         id="flowRegion4520"><rect
           id="rect4522"
           width="263.64978"
           height="78.791885"
           x="296.98486"
           y="78.096268" /></flowRegion><flowPara
         id="flowPara4530"
         style="font-style:normal;font-variant:normal;font-weight:normal;font-stretch:normal;font-family:'Liberation Sans';-inkscape-font-specification:'Liberation Sans';text-align:start;text-anchor:start">A probabilistically bounded connected spatial <flowSpan
   style="font-weight:bold"
   id="flowSpan5248">volume</flowSpan>.</flowPara><flowPara
         id="flowPara4542"
         style="font-style:normal;font-variant:normal;font-weight:normal;font-stretch:normal;font-family:'Liberation Sans';-inkscape-font-specification:'Liberation Sans';text-align:start;text-anchor:start" /></flowRoot>    <flowRoot
       xml:space="preserve"
       id="flowRoot4532"
       style="font-style:normal;font-weight:normal;font-size:15px;line-height:125%;font-family:'Liberation Sans';letter-spacing:0px;word-spacing:0px;fill:#000000;fill-opacity:1;stroke:none;stroke-width:1px;stroke-linecap:butt;stroke-linejoin:miter;stroke-opacity:1"
       transform="matrix(0.99999823,0,0,1,6.3678804e-4,-1.5000187)"><flowRegion
         id="flowRegion4534"><rect
           id="rect4536"
           width="268.9574"
           height="69.726585"
           x="361.57996"
           y="494.4873"
           style="font-size:15px" /></flowRegion><flowPara
         id="flowPara4540"
         style="font-style:normal;font-variant:normal;font-weight:normal;font-stretch:normal;font-family:'Liberation Sans';-inkscape-font-specification:'Liberation Sans'">A bounded connected spatial <flowSpan
   style="font-weight:bold"
   id="flowSpan4179">volume</flowSpan>.</flowPara><flowPara
         id="flowPara4666"
         style="font-style:normal;font-variant:normal;font-weight:normal;font-stretch:normal;font-family:'Liberation Sans';-inkscape-font-specification:'Liberation Sans'"><flowSpan
   style="font-weight:bold"
   id="flowSpan5242">Delineates </flowSpan>one or more spatial semantic regions.</flowPara><flowPara
         id="flowPara4544"
         style="font-style:normal;font-variant:normal;font-weight:normal;font-stretch:normal;font-family:'Liberation Sans';-inkscape-font-specification:'Liberation Sans'" /></flowRoot>    <path
       style="fill:none;fill-rule:evenodd;stroke:#000000;stroke-width:4;stroke-linecap:butt;stroke-linejoin:round;stroke-miterlimit:4;stroke-dasharray:16, 16;stroke-dashoffset:0;stroke-opacity:1"
       d="m 717.71926,659.3706 c -11.63854,-19.97887 -15.22024,-47.32353 0,-60.60914 22.52961,-19.6659 62.42134,-1.79076 88.89343,12.12182 27.00699,14.1937 48.05098,42.81875 61.6193,67.68021 13.56832,24.86146 36.69518,55.48546 20.20305,75.76147 -7.66072,9.41837 -25.72882,3.83231 -36.36548,-2.02035 -15.22653,-8.37816 -16.6655,-31.65531 -30.30458,-42.42639 -16.83142,-13.29213 -42.28032,-15.66265 -59.59901,-24.24366 -17.31869,-8.58101 -32.80818,-6.28509 -44.44671,-26.26396 z"
       id="path4138-5-6"
       inkscape:connector-curvature="0"
       sodipodi:nodetypes="caazaaazc" />
    <path
       style="opacity:1;fill:#000000;fill-opacity:0;fill-rule:nonzero;stroke:#000000;stroke-width:10;stroke-linecap:round;stroke-linejoin:round;stroke-miterlimit:4;stroke-dasharray:none;stroke-dashoffset:0;stroke-opacity:1"
       id="path4136-6-9-3"
       sodipodi:type="arc"
       sodipodi:cx="1135.8218"
       sodipodi:cy="625.66089"
       sodipodi:rx="1.9238827"
       sodipodi:ry="1.7827441"
       sodipodi:start="0"
       sodipodi:end="6.2806022"
       d="m 1137.7457,625.66089 a 1.9238827,1.7827441 0 0 1 -1.9227,1.78274 1.9238827,1.7827441 0 0 1 -1.9251,-1.78044 1.9238827,1.7827441 0 0 1 1.9202,-1.78504 1.9238827,1.7827441 0 0 1 1.9276,1.77813"
       sodipodi:open="true" />
    <path
       style="fill:none;fill-rule:evenodd;stroke:#000000;stroke-width:4;stroke-linecap:round;stroke-linejoin:round;stroke-miterlimit:4;stroke-dasharray:none;stroke-opacity:1"
       d="m 1002.6195,564.81521 c 0,0 54.9333,9.30401 82.4436,23.29335 27.5103,13.98934 57.8223,39.19457 78.2718,61.44115 20.4495,22.24658 36.8283,45.45102 44.9219,68.35936 8.0936,22.90834 6.2501,63.67188 6.2501,63.67188"
       id="path4494"
       inkscape:connector-curvature="0"
       sodipodi:nodetypes="ccccc" />
    <path
       style="fill:none;fill-rule:evenodd;stroke:#000000;stroke-width:2;stroke-linecap:round;stroke-linejoin:round;stroke-miterlimit:4;stroke-dasharray:2,24;stroke-dashoffset:16;stroke-opacity:1"
       d="m 1017.9751,571.89861 c 0,0 -23.43433,38.79233 -22.81807,60.85422 0.61626,22.06189 9.49797,47.81948 27.16237,61.71874 16.8408,13.25117 43.1199,4.06705 63.2812,11.32814 21.6683,7.80378 43.0313,33.3735 60.1563,33.98437 17.1249,0.61087 20.4449,-9.36552 30.4687,-14.45313 9.5075,-4.82558 28.1251,-15.23437 28.1251,-15.23437"
       id="path4496"
       inkscape:connector-curvature="0"
       sodipodi:nodetypes="ccaazac" />
    <text
       xml:space="preserve"
       style="font-style:normal;font-weight:normal;font-size:15px;line-height:125%;font-family:'Liberation Sans';letter-spacing:0px;word-spacing:0px;fill:#000000;fill-opacity:1;stroke:none;stroke-width:1px;stroke-linecap:butt;stroke-linejoin:miter;stroke-opacity:1"
       x="959.17993"
       y="488.65372"
       id="text4289-6"
       sodipodi:linespacing="125%"><tspan
         sodipodi:role="line"
         x="959.17993"
         y="488.65372"
         id="tspan4293-2"
         style="font-style:normal;font-variant:normal;font-weight:bold;font-stretch:normal;font-size:17.5px;font-family:'Liberation Sans';-inkscape-font-specification:'Liberation Sans Bold'">Unbounded parcellation region</tspan></text>
    <flowRoot
       xml:space="preserve"
       id="flowRoot4518-9"
       style="font-style:normal;font-weight:normal;font-size:15px;line-height:125%;font-family:'Liberation Sans';letter-spacing:0px;word-spacing:0px;fill:#000000;fill-opacity:1;stroke:none;stroke-width:1px;stroke-linecap:butt;stroke-linejoin:miter;stroke-opacity:1"
       transform="matrix(0.99999956,0,0,1.000002,663.33704,416.64233)"><flowRegion
         id="flowRegion4520-1"><rect
           id="rect4522-2"
           width="274.69833"
           height="81.001587"
           x="296.98486"
           y="78.096268" /></flowRegion><flowPara
         id="flowPara4542-9"
         style="font-style:normal;font-variant:normal;font-weight:normal;font-stretch:normal;font-family:'Liberation Sans';-inkscape-font-specification:'Liberation Sans';text-align:start;text-anchor:start">An unbounded or partially bounded connected spatial <flowSpan
   style="font-weight:bold"
   id="flowSpan5248-0">volume</flowSpan>. defined by a <flowSpan
   style="font-weight:bold"
   id="flowSpan4556">point</flowSpan> and possibly also a line or a plane.</flowPara></flowRoot>  </g>
</svg>
