<?xml version="1.0" encoding="UTF-8"?><svg xmlns="http://www.w3.org/2000/svg" xmlns:xlink="http://www.w3.org/1999/xlink" fill-opacity="1" color-rendering="auto" color-interpolation="auto" text-rendering="auto" stroke="black" stroke-linecap="square" width="573" stroke-miterlimit="10" shape-rendering="auto" stroke-opacity="1" fill="black" stroke-dasharray="none" font-weight="normal" stroke-width="1" height="288" font-family="'Dialog'" font-style="normal" stroke-linejoin="miter" font-size="12px" stroke-dashoffset="0" image-rendering="auto">
  <!--Generated by ySVG 2.5-->
  <defs id="genericDefs"/>
  <g>
    <defs id="defs1">
      <clipPath clipPathUnits="userSpaceOnUse" id="clipPath1">
        <path d="M0 0 L573 0 L573 288 L0 288 L0 0 Z"/>
      </clipPath>
      <clipPath clipPathUnits="userSpaceOnUse" id="clipPath2">
        <path d="M-21 -167 L552 -167 L552 121 L-21 121 L-21 -167 Z"/>
      </clipPath>
    </defs>
    <g fill="white" text-rendering="geometricPrecision" shape-rendering="geometricPrecision" transform="translate(21,167)" stroke="white">
      <rect x="-21" width="573" height="288" y="-167" clip-path="url(#clipPath2)" stroke="none"/>
    </g>
    <g text-rendering="geometricPrecision" stroke-miterlimit="1.45" stroke-dasharray="6,2" shape-rendering="geometricPrecision" transform="matrix(1,0,0,1,21,167)" stroke-linecap="butt">
      <rect x="280" y="-78" clip-path="url(#clipPath2)" fill="none" width="120" rx="4" ry="4" height="30"/>
      <text x="304.7441" y="-65.8301" clip-path="url(#clipPath2)" font-family="sans-serif" stroke-dasharray="none" stroke="none" xml:space="preserve">Parcellation</text>
      <text x="317.9688" y="-51.8613" clip-path="url(#clipPath2)" font-family="sans-serif" stroke-dasharray="none" stroke="none" xml:space="preserve">Artifact</text>
      <rect x="-20.9" y="-5.84" clip-path="url(#clipPath2)" fill="none" width="120" stroke-dasharray="none" rx="4" ry="4" height="30" stroke-width="2"/>
      <text x="-14.2496" y="13.3143" clip-path="url(#clipPath2)" font-family="sans-serif" stroke-dasharray="none" stroke="none" xml:space="preserve">Parcellation Label</text>
    </g>
    <g stroke-linecap="round" transform="matrix(1,0,0,1,21,167)" stroke-dashoffset="2" text-rendering="geometricPrecision" shape-rendering="geometricPrecision" stroke-dasharray="0,8" stroke-width="2" stroke-miterlimit="1.45">
      <rect x="358" y="-166" clip-path="url(#clipPath2)" fill="none" width="120" rx="4" ry="4" height="30"/>
    </g>
    <g text-rendering="geometricPrecision" stroke-miterlimit="1.45" shape-rendering="geometricPrecision" font-family="sans-serif" transform="matrix(1,0,0,1,21,167)" stroke-linecap="butt">
      <text x="394.9082" xml:space="preserve" y="-146.8457" clip-path="url(#clipPath2)" stroke="none">Species</text>
    </g>
    <g stroke-linecap="round" transform="matrix(1,0,0,1,21,167)" stroke-dashoffset="2" text-rendering="geometricPrecision" shape-rendering="geometricPrecision" stroke-dasharray="0,8" stroke-width="2" stroke-miterlimit="1.45">
      <rect x="202" y="-166" clip-path="url(#clipPath2)" fill="none" width="120" rx="4" ry="4" height="30"/>
    </g>
    <g text-rendering="geometricPrecision" stroke-miterlimit="1.45" shape-rendering="geometricPrecision" font-family="sans-serif" transform="matrix(1,0,0,1,21,167)" stroke-linecap="butt">
      <text x="216.2646" xml:space="preserve" y="-153.8301" clip-path="url(#clipPath2)" stroke="none">Developmental</text>
      <text x="242.7549" xml:space="preserve" y="-139.8613" clip-path="url(#clipPath2)" stroke="none"> Stage</text>
      <rect x="130" y="-5.84" clip-path="url(#clipPath2)" fill="none" width="120" stroke-dasharray="6,2" rx="4" ry="4" height="30"/>
      <text x="152.4941" xml:space="preserve" y="13.3143" clip-path="url(#clipPath2)" stroke="none">Terminology</text>
      <rect x="280" y="66.32" clip-path="url(#clipPath2)" fill="none" width="120" rx="4" ry="4" height="30" stroke-width="2"/>
      <text x="325.0732" xml:space="preserve" y="85.4743" clip-path="url(#clipPath2)" stroke="none">Atlas</text>
    </g>
    <g stroke-linecap="round" transform="matrix(1,0,0,1,21,167)" text-rendering="geometricPrecision" shape-rendering="geometricPrecision" stroke-dasharray="8,6,0,6" stroke-width="2" stroke-miterlimit="1.45">
      <rect x="128.2" y="66.32" clip-path="url(#clipPath2)" fill="none" width="120" rx="4" ry="4" height="30"/>
    </g>
    <g text-rendering="geometricPrecision" stroke-miterlimit="1.45" shape-rendering="geometricPrecision" font-family="sans-serif" transform="matrix(1,0,0,1,21,167)" stroke-linecap="butt">
      <text x="130.2273" xml:space="preserve" y="85.4743" clip-path="url(#clipPath2)" stroke="none">Parcellation Region</text>
      <rect x="280.9" y="-5.84" clip-path="url(#clipPath2)" fill="none" width="120" stroke-dasharray="6,2" rx="4" ry="4" height="30"/>
      <text x="287.7115" xml:space="preserve" y="13.3143" clip-path="url(#clipPath2)" stroke="none">Coordinate Space</text>
      <rect x="431.8" y="-5.84" clip-path="url(#clipPath2)" fill="none" width="120" stroke-dasharray="6,2" rx="4" ry="4" height="30"/>
      <text x="457.4904" xml:space="preserve" y="13.3143" clip-path="url(#clipPath2)" stroke="none">Delineation</text>
      <rect x="431.8" y="-78" clip-path="url(#clipPath2)" fill="none" width="120" rx="4" ry="4" height="30"/>
      <text x="457.4904" xml:space="preserve" y="-65.8301" clip-path="url(#clipPath2)" stroke="none">Delineation</text>
      <text x="469.6223" xml:space="preserve" y="-51.8613" clip-path="url(#clipPath2)" stroke="none">Criteria</text>
      <rect x="-20.9" y="66.32" clip-path="url(#clipPath2)" fill="none" width="120" rx="4" ry="4" height="30"/>
      <text x="2.6488" xml:space="preserve" y="78.4899" clip-path="url(#clipPath2)" stroke="none">Registration</text>
      <text x="16.9223" xml:space="preserve" y="92.4587" clip-path="url(#clipPath2)" stroke="none">Criteria</text>
      <path fill="none" stroke-dasharray="4,3,0,3" d="M399.9854 -63 L418 -63 L418 -128.0039" clip-path="url(#clipPath2)" stroke-linecap="round"/>
      <path stroke-dasharray="4,3,0,3" d="M418 -136.0039 L413 -124.0039 L418 -127.0039 L423 -124.0039 Z" clip-path="url(#clipPath2)" stroke-linecap="round" stroke="none"/>
      <path fill="none" stroke-dasharray="4,3,0,3" d="M280.0146 -63 L262 -63 L262 -128.0039" clip-path="url(#clipPath2)" stroke-linecap="round"/>
      <path stroke-dasharray="4,3,0,3" d="M262 -136.0039 L257 -124.0039 L262 -127.0039 L267 -124.0039 Z" clip-path="url(#clipPath2)" stroke-linecap="round" stroke="none"/>
    </g>
    <g stroke-linecap="round" transform="matrix(1,0,0,1,21,167)" fill="white" text-rendering="geometricPrecision" shape-rendering="geometricPrecision" stroke-dasharray="4,3,0,3" stroke="white" stroke-miterlimit="1.45">
      <rect x="225.7412" width="71.5176" height="17.9688" y="-111.4844" clip-path="url(#clipPath2)" stroke="none"/>
    </g>
    <g text-rendering="geometricPrecision" stroke-miterlimit="1.45" shape-rendering="geometricPrecision" font-family="sans-serif" transform="matrix(1,0,0,1,21,167)" stroke-linecap="butt">
      <text x="227.7412" xml:space="preserve" y="-98.3457" clip-path="url(#clipPath2)" stroke="none">isDefinedIn</text>
      <path fill="none" stroke-dasharray="6,2" d="M99.0911 10.9492 L122.0319 11.6335" clip-path="url(#clipPath2)"/>
      <path stroke-dasharray="6,2" d="M130.0283 11.872 L118.1827 6.5164 L121.0323 11.6036 L117.8846 16.512 Z" clip-path="url(#clipPath2)" stroke="none"/>
      <path fill="none" d="M249.5249 -3.7204 L310.4025 -43.6076" clip-path="url(#clipPath2)"/>
      <path d="M317.0941 -47.992 L304.3164 -45.5977 L309.566 -43.0596 L309.7969 -37.2332 Z" clip-path="url(#clipPath2)" stroke="none"/>
    </g>
    <g stroke-linecap="round" transform="matrix(1,0,0,1,21,167)" stroke-dashoffset="2" text-rendering="geometricPrecision" shape-rendering="geometricPrecision" stroke-dasharray="0,8" stroke-width="2" stroke-miterlimit="1.45">
      <path fill="none" d="M316.4085 66.3335 L256.177 28.0712" clip-path="url(#clipPath2)"/>
      <path d="M248.5802 23.2454 L256.9592 35.2322 L257.1266 28.6745 L262.9916 25.7362 Z" clip-path="url(#clipPath2)" stroke="none"/>
    </g>
    <g text-rendering="geometricPrecision" stroke-miterlimit="1.45" stroke-dasharray="6,2" shape-rendering="geometricPrecision" transform="matrix(1,0,0,1,21,167)" stroke-linecap="butt">
      <path fill="none" d="M248.2292 81.32 L271.9836 81.32" clip-path="url(#clipPath2)"/>
      <path d="M279.9836 81.32 L267.9836 76.32 L270.9836 81.32 L267.9836 86.32 Z" clip-path="url(#clipPath2)" stroke="none"/>
      <path fill="none" d="M165.1931 66.3315 L104.9296 27.0713" clip-path="url(#clipPath2)"/>
      <path d="M98.2265 22.7044 L105.5518 33.4441 L105.7674 27.6172 L111.0104 25.0653 Z" clip-path="url(#clipPath2)" stroke="none"/>
      <rect x="94.9646" y="36.2556" clip-path="url(#clipPath2)" fill="white" width="75.707" height="17.9688" stroke="none"/>
      <text x="96.9646" y="49.3943" clip-path="url(#clipPath2)" font-family="sans-serif" stroke-dasharray="none" stroke="none" xml:space="preserve">isDefinedBy</text>
    </g>
    <g stroke-linecap="round" transform="matrix(1,0,0,1,21,167)" stroke-dashoffset="2" text-rendering="geometricPrecision" shape-rendering="geometricPrecision" stroke-dasharray="0,8" stroke-width="2" stroke-miterlimit="1.45">
      <path fill="none" d="M340.1868 66.3454 L340.6007 33.1537" clip-path="url(#clipPath2)"/>
      <path d="M340.713 24.1544 L334.92 37.5832 L340.5867 34.2786 L346.1692 37.7235 Z" clip-path="url(#clipPath2)" stroke="none"/>
      <rect x="309.4513" y="43.3512" clip-path="url(#clipPath2)" fill="white" width="61.8203" height="17.9688" stroke="none"/>
    </g>
    <g text-rendering="geometricPrecision" stroke-miterlimit="1.45" shape-rendering="geometricPrecision" font-family="sans-serif" transform="matrix(1,0,0,1,21,167)" stroke-linecap="butt">
      <text x="311.4514" xml:space="preserve" y="56.4899" clip-path="url(#clipPath2)" stroke="none">combines</text>
      <path fill="none" d="M340.7132 -5.8146 L340.2868 -40.0062" clip-path="url(#clipPath2)"/>
      <path d="M340.187 -48.0056 L335.337 -35.9442 L340.2993 -39.0063 L345.3363 -36.0689 Z" clip-path="url(#clipPath2)" stroke="none"/>
      <rect x="305.1811" y="-28.8088" clip-path="url(#clipPath2)" fill="white" width="70.7148" height="17.9688" stroke="none"/>
      <text x="307.1811" xml:space="preserve" y="-15.6701" clip-path="url(#clipPath2)" stroke="none">subClassOf</text>
    </g>
    <g stroke-linecap="round" transform="matrix(1,0,0,1,21,167)" stroke-dashoffset="2" text-rendering="geometricPrecision" shape-rendering="geometricPrecision" stroke-dasharray="0,8" stroke-width="2" stroke-miterlimit="1.45">
      <path fill="none" d="M364.1189 66.3127 L425.6457 28.0295" clip-path="url(#clipPath2)"/>
      <path d="M433.2872 23.2748 L418.8533 25.6309 L424.6905 28.6238 L424.7967 35.1828 Z" clip-path="url(#clipPath2)" stroke="none"/>
    </g>
    <g text-rendering="geometricPrecision" stroke-miterlimit="1.45" shape-rendering="geometricPrecision" transform="matrix(1,0,0,1,21,167)" stroke-linecap="butt">
      <path fill="none" d="M433.2214 -4.9102 L370.8461 -43.7786" clip-path="url(#clipPath2)"/>
      <path d="M364.0564 -48.0095 L371.5966 -37.4197 L371.6948 -43.2498 L376.8852 -45.9067 Z" clip-path="url(#clipPath2)" stroke="none"/>
      <path fill="none" stroke-dasharray="6,2" d="M491.8 -5.8146 L491.8 -40.0056" clip-path="url(#clipPath2)"/>
      <path stroke-dasharray="6,2" d="M491.8 -48.0056 L486.8 -36.0056 L491.8 -39.0056 L496.8 -36.0056 Z" clip-path="url(#clipPath2)" stroke="none"/>
      <rect x="453.9465" y="-28.8088" clip-path="url(#clipPath2)" fill="white" width="75.707" stroke-dasharray="6,2" height="17.9688" stroke="none"/>
      <text x="455.9465" xml:space="preserve" y="-15.6701" clip-path="url(#clipPath2)" font-family="sans-serif" stroke="none">isDefinedBy</text>
    </g>
    <g stroke-linecap="round" transform="matrix(1,0,0,1,21,167)" stroke-dashoffset="2" text-rendering="geometricPrecision" shape-rendering="geometricPrecision" stroke-dasharray="0,8" stroke-width="2" stroke-miterlimit="1.45">
      <path fill="none" d="M99.1259 81.32 L119.2228 81.32" clip-path="url(#clipPath2)"/>
      <path d="M128.2228 81.32 L114.7228 75.695 L118.0978 81.32 L114.7228 86.945 Z" clip-path="url(#clipPath2)" stroke="none"/>
    </g>
    <g text-rendering="geometricPrecision" stroke-miterlimit="1.45" shape-rendering="geometricPrecision" font-family="sans-serif" transform="matrix(1,0,0,1,21,167)" stroke-linecap="butt">
      <text x="75.5318" xml:space="preserve" y="115.4743" clip-path="url(#clipPath2)" stroke="none">mapsDataTo</text>
    </g>
  </g>
</svg>
